<?xml version="1.0" standalone="no"?>
<!DOCTYPE svg PUBLIC "-//W3C//DTD SVG 20010904//EN"
 "http://www.w3.org/TR/2001/REC-SVG-20010904/DTD/svg10.dtd">
<svg version="1.0" xmlns="http://www.w3.org/2000/svg"
 width="300.000000pt" height="261.000000pt" viewBox="0 0 300.000000 261.000000"
 preserveAspectRatio="xMidYMid meet">
<metadata>
Created by potrace 1.10, written by Peter Selinger 2001-2011
</metadata>
<g transform="translate(0.000000,261.000000) scale(0.100000,-0.100000)"
fill="#387ED1" stroke="none">
<path d="M1382 2290 c-382 -54 -700 -321 -815 -685 -29 -91 -47 -208 -40 -248
10 -51 20 -27 26 61 22 338 289 680 624 802 560 202 1162 -133 1283 -714 6
-31 16 -56 21 -56 13 0 12 3 -16 108 -114 424 -479 718 -915 736 -58 3 -133 1
-168 -4z"/>
<path d="M1390 2174 c-200 -36 -348 -112 -486 -249 -95 -95 -145 -168 -193
-281 -46 -110 -47 -114 -17 -114 21 0 26 5 26 26 0 22 2 24 15 14 8 -7 17 -27
21 -46 11 -57 39 -84 87 -83 23 1 33 3 22 6 -37 8 -65 26 -71 47 -3 12 -17 44
-31 72 l-25 51 32 63 c69 136 186 264 309 338 86 51 116 54 124 13 4 -18 18
-36 37 -47 41 -25 38 -47 -12 -81 -26 -17 -45 -39 -48 -53 -8 -38 -21 -53 -73
-89 -26 -18 -61 -54 -77 -79 -19 -31 -48 -59 -87 -82 -68 -42 -77 -63 -32 -79
18 -6 29 -16 26 -23 -8 -23 11 -57 43 -76 34 -21 80 -18 80 5 0 11 -7 13 -24
9 -32 -8 -79 28 -71 55 8 24 -11 49 -36 49 -31 0 -22 15 25 37 23 12 54 36 67
53 33 45 88 100 132 133 23 17 40 41 48 65 8 28 21 43 47 57 22 12 41 32 47
49 9 26 6 31 -28 60 -20 17 -37 40 -37 52 0 11 -5 25 -11 31 -12 12 55 35 159
55 109 20 320 -1 425 -44 l28 -11 -33 -19 c-51 -31 -88 -69 -113 -118 -13 -25
-42 -62 -64 -83 -42 -38 -49 -63 -31 -98 13 -23 47 -25 86 -4 16 8 41 15 55
15 14 0 47 14 73 31 38 26 54 30 83 26 50 -9 52 -15 15 -45 -43 -36 -41 -59 4
-78 47 -20 35 -30 -42 -37 -45 -5 -66 -3 -80 8 -33 25 -82 18 -145 -21 -56
-34 -99 -78 -112 -116 -10 -27 19 -11 49 29 58 76 154 113 207 78 18 -11 35
-12 92 -4 95 13 123 54 54 78 -16 5 -29 13 -29 18 0 4 14 22 31 39 18 18 29
39 26 47 -3 8 -26 19 -51 26 -49 12 -80 5 -122 -28 -14 -11 -43 -23 -67 -26
-23 -4 -52 -14 -64 -22 -12 -8 -27 -12 -33 -8 -22 13 -8 50 38 100 26 29 57
69 70 91 25 42 83 89 124 99 19 5 44 -6 115 -54 136 -91 251 -229 308 -369 17
-42 29 -58 45 -60 28 -5 24 11 -35 128 -86 171 -219 303 -391 389 -122 61
-209 82 -354 86 -69 2 -136 2 -150 -1z"/>
<path d="M1377 2104 c-46 -14 -48 -17 -42 -44 3 -16 2 -31 -4 -35 -19 -11 -12
-61 12 -84 26 -24 53 -20 62 8 3 10 33 45 67 79 53 52 60 63 48 76 -16 20 -78
20 -143 0z m123 -10 c0 -3 -25 -28 -54 -55 -30 -28 -58 -59 -61 -70 -8 -26
-24 -24 -34 4 -6 15 -4 29 5 45 9 13 12 31 9 42 -5 15 1 20 37 28 50 12 98 14
98 6z"/>
<path d="M1773 1988 c-17 -18 -38 -49 -48 -68 -9 -19 -35 -52 -58 -74 l-42
-38 43 32 c23 18 52 51 64 74 11 22 36 56 55 74 19 17 30 32 26 32 -5 0 -23
-15 -40 -32z"/>
<path d="M1129 1820 c-20 -19 -48 -43 -62 -53 -15 -10 -41 -39 -58 -66 -18
-27 -50 -60 -73 -75 -22 -14 -36 -26 -30 -26 22 0 82 51 114 98 19 28 54 63
78 79 39 24 81 70 71 76 -2 1 -20 -14 -40 -33z"/>
<path d="M1971 1819 c0 -15 -13 -39 -28 -54 -24 -24 -25 -26 -6 -16 29 15 45
46 40 74 -4 19 -4 19 -6 -4z"/>
<path d="M2070 1672 c0 -4 10 -12 23 -17 12 -6 31 -27 42 -47 14 -26 32 -43
59 -53 21 -9 41 -14 44 -11 3 3 -4 8 -14 12 -51 16 -65 26 -83 62 -17 33 -71
75 -71 54z"/>
<path d="M1982 1634 c-27 -18 -29 -60 -6 -127 11 -33 21 -47 34 -47 18 0 18 1
0 38 -10 20 -21 51 -24 69 -6 27 -3 34 19 49 34 22 68 8 96 -41 21 -35 64 -65
92 -65 8 0 22 -10 30 -22 16 -23 16 -23 16 -2 1 26 -14 40 -53 50 -17 4 -41
24 -62 54 -19 27 -41 51 -50 54 -28 11 -69 6 -92 -10z"/>
<path d="M1669 1620 c-19 -10 -42 -26 -50 -36 -7 -9 9 -3 37 15 52 31 88 39
99 21 3 -5 11 -10 17 -10 7 0 6 6 -2 15 -17 20 -57 18 -101 -5z"/>
<path d="M1630 1509 c-92 -42 -134 -107 -134 -209 0 -77 25 -133 79 -178 110
-90 300 -58 362 61 41 79 31 193 -22 263 -59 77 -190 106 -285 63z m204 -50
c22 -14 47 -45 63 -77 21 -44 25 -61 20 -104 -16 -132 -150 -205 -273 -149
-137 62 -138 271 -2 340 58 30 141 25 192 -10z"/>
<path d="M1610 1324 c0 -10 15 -14 58 -14 32 0 63 -5 70 -12 7 -7 12 -36 12
-65 0 -40 4 -53 15 -53 23 0 21 101 -2 128 -23 25 -153 39 -153 16z"/>
<path d="M2290 1319 c0 -186 1 -200 18 -197 12 3 16 12 14 33 l-4 30 24 -21
c53 -49 90 -55 154 -24 55 27 78 73 71 143 -4 42 -10 56 -41 84 -31 29 -42 33
-91 33 -46 0 -60 -4 -80 -25 l-25 -24 0 84 c0 78 -2 85 -20 85 -19 0 -20 -7
-20 -201z m199 35 c13 -9 29 -31 37 -50 44 -104 -87 -195 -167 -115 -65 65
-21 181 68 181 21 0 49 -7 62 -16z"/>
<path d="M1117 1303 c2 -169 5 -198 18 -201 11 -3 15 5 15 27 l0 30 24 -24
c49 -49 142 -41 190 16 53 63 42 163 -23 206 -49 33 -119 32 -160 -3 l-31 -26
0 86 c0 75 -2 86 -17 86 -17 0 -18 -15 -16 -197z m187 37 c14 -5 32 -23 41
-39 41 -80 -3 -161 -87 -161 -54 0 -83 19 -98 65 -31 93 51 171 144 135z"/>
<path d="M1230 1292 c0 -12 68 -48 75 -40 10 9 -36 48 -57 48 -10 0 -18 -4
-18 -8z"/>
<path d="M140 1473 c0 -3 28 -89 63 -190 80 -236 80 -236 153 -24 29 84 55
155 56 157 2 2 28 -69 57 -157 72 -217 73 -217 157 34 58 172 61 188 43 185
-17 -2 -30 -31 -72 -160 -29 -87 -54 -158 -57 -158 -3 0 -28 71 -55 158 -69
214 -73 214 -144 2 -29 -88 -54 -160 -56 -160 -1 0 -26 72 -55 160 -43 130
-57 160 -72 160 -10 0 -18 -3 -18 -7z"/>
<path d="M2050 1264 c0 -133 1 -145 18 -142 14 3 17 17 20 100 3 94 4 98 33
122 17 14 39 26 50 26 12 0 19 7 19 20 0 17 -4 19 -27 14 -16 -4 -40 -18 -55
-32 l-28 -26 0 32 c0 22 -5 32 -15 32 -13 0 -15 -23 -15 -146z"/>
<path d="M2681 1381 c-18 -14 -25 -29 -25 -55 0 -40 20 -61 69 -71 92 -20 105
-26 105 -48 0 -13 -5 -28 -12 -35 -17 -17 -109 -15 -135 3 -20 14 -23 14 -33
-4 -9 -18 -5 -22 44 -37 89 -28 176 4 176 66 0 41 -31 66 -99 79 -79 15 -100
40 -65 75 18 18 85 21 116 5 15 -8 23 -8 32 1 37 38 -126 57 -173 21z"/>
<path d="M794 1361 c-53 -32 -73 -112 -45 -177 16 -35 29 -49 63 -64 54 -25
82 -25 135 0 31 14 41 23 37 34 -7 19 -14 20 -38 1 -27 -21 -106 -19 -132 3
-20 15 -44 52 -44 66 0 3 54 6 121 6 l121 0 -7 33 c-12 51 -33 85 -65 102 -40
21 -108 19 -146 -4z m147 -40 c52 -53 42 -61 -71 -61 -55 0 -100 2 -100 5 0
15 32 65 47 74 10 6 35 11 56 11 29 0 45 -7 68 -29z"/>
<path d="M662 1237 c-10 -40 -10 -59 4 -119 47 -207 177 -398 352 -519 154
-107 299 -152 492 -152 250 0 457 88 626 264 77 81 116 140 165 244 43 92 47
115 21 115 -12 0 -24 -18 -40 -63 -52 -146 -199 -321 -338 -403 -150 -88 -264
-118 -439 -117 -110 0 -143 4 -218 27 -110 33 -186 71 -273 137 -102 77 -189
181 -245 291 -35 69 -79 213 -88 287 l-6 55 -13 -47z"/>
<path d="M749 1047 c28 -81 97 -204 109 -193 2 3 -6 19 -18 35 -27 39 -90 175
-90 195 0 9 -4 16 -9 16 -6 0 -2 -24 8 -53z"/>
<path d="M1008 1095 c-3 -3 6 -28 20 -57 13 -28 28 -79 33 -112 4 -34 11 -71
15 -83 3 -12 2 -36 -4 -52 -8 -24 -7 -37 9 -68 24 -45 82 -103 104 -103 21 0
30 27 17 53 -6 12 -10 29 -10 37 -1 8 -3 24 -7 35 -5 16 2 26 32 46 26 17 38
32 39 49 0 14 8 42 17 62 9 21 17 44 17 52 0 8 15 23 34 34 36 21 59 51 71 91
11 37 -17 21 -37 -21 -10 -20 -26 -39 -37 -43 -26 -8 -61 -52 -61 -77 0 -11
-9 -31 -20 -45 -11 -15 -18 -34 -15 -47 4 -16 -3 -26 -28 -41 -29 -19 -32 -25
-33 -70 0 -28 3 -58 8 -67 13 -26 -5 -22 -31 6 -14 15 -21 31 -17 43 3 10 1
25 -5 33 -8 11 -9 9 -4 -10 l7 -25 -17 22 c-13 19 -14 29 -4 61 8 29 8 44 0
60 -6 11 -11 38 -11 59 0 21 -13 69 -29 107 -26 66 -40 84 -53 71z"/>
<path d="M1982 1042 c-29 -24 -32 -32 -31 -72 2 -50 -16 -93 -55 -130 -21 -19
-31 -22 -43 -14 -20 12 -53 106 -54 152 -1 38 -29 46 -29 8 0 -43 41 -161 62
-179 55 -47 157 65 145 158 -6 38 -4 43 19 56 30 16 52 49 32 49 -7 0 -28 -13
-46 -28z"/>
<path d="M2430 1003 c-75 -225 -255 -440 -460 -547 -90 -48 -227 -92 -329
-107 -97 -14 -259 -7 -339 14 -29 8 -55 11 -57 7 -17 -28 114 -53 275 -52 200
1 382 58 552 173 81 55 193 166 248 248 44 65 122 225 134 273 3 14 9 33 12
42 3 9 2 16 -4 16 -5 0 -19 -30 -32 -67z"/>
<path d="M1305 1044 c-11 -8 -26 -19 -33 -23 -13 -7 -55 -112 -47 -119 6 -6
25 44 25 65 0 8 19 33 42 54 43 39 50 51 13 23z"/>
<path d="M561 1033 c-2 -42 86 -235 135 -300 16 -22 21 -33 12 -34 -7 0 7 -9
31 -20 24 -11 45 -18 46 -17 2 2 -8 19 -21 38 -13 19 -24 28 -24 21 0 -50 -88
105 -151 264 -16 39 -28 60 -28 48z"/>
<path d="M1085 1020 c8 -16 15 -38 15 -50 0 -11 4 -20 9 -20 6 0 6 13 -1 33
-5 17 -12 40 -15 50 -3 9 -9 17 -14 17 -5 0 -3 -13 6 -30z"/>
<path d="M1821 989 c1 -19 5 -45 9 -59 6 -16 7 -6 3 30 -7 63 -13 80 -12 29z"/>
<path d="M2221 968 c-18 -55 -100 -165 -172 -233 -70 -65 -157 -121 -234 -150
-26 -11 -43 -21 -36 -23 30 -10 197 87 280 163 83 76 189 236 178 268 -2 7 -9
-4 -16 -25z"/>
</g>
</svg>
